<?xml version="1.0" encoding="iso-8859-1"?>
<!-- Generator: Adobe Illustrator 19.0.0, SVG Export Plug-In . SVG Version: 6.00 Build 0)  -->
<svg version="1.1" id="Layer_1" xmlns="http://www.w3.org/2000/svg" xmlns:xlink="http://www.w3.org/1999/xlink" x="0px" y="0px"
	 width="30" height="30" viewBox="0 0 512 512" style="enable-background:new 0 0 30 30;" xml:space="preserve">
<g>
	<g>
		<g>
			<path style="fill:white;" d="M507.48,301.267l0.155-0.069L415.698,95.563C407.115,76.385,388.01,64,367.01,64H144.99
				c-21,0-40.104,12.385-48.688,31.563L4.365,301.198l0.155,0.069C1.717,306.947,0,313.249,0,320v85.333
				C0,428.865,19.135,448,42.667,448h426.667C492.865,448,512,428.865,512,405.333V320C512,313.249,510.283,306.947,507.48,301.267z
				 M115.781,104.271c5.146-11.5,16.615-18.938,29.208-18.938H367.01c12.594,0,24.063,7.438,29.208,18.938l77.576,173.513
				c-1.487-0.158-2.934-0.451-4.461-0.451H42.667c-1.527,0-2.974,0.293-4.461,0.451L115.781,104.271z M490.667,405.333
				c0,11.76-9.573,21.333-21.333,21.333H42.667c-11.76,0-21.333-9.573-21.333-21.333V320c0-11.76,9.573-21.333,21.333-21.333
				h426.667c11.76,0,21.333,9.573,21.333,21.333V405.333z"/>
			<circle style="fill:white;" cx="426.667" cy="362.667" r="21.333"/>
			<circle style="fill:white;" cx="370" cy="362.667" r="21.333"/>
			<circle style="fill:white;" cx="310" cy="362.667" r="21.333"/>
		</g>
	</g>
</g>
<g>
</g>
<g>
</g>
<g>
</g>
<g>
</g>
<g>
</g>
<g>
</g>
<g>
</g>
<g>
</g>
<g>
</g>
<g>
</g>
<g>
</g>
<g>
</g>
<g>
</g>
<g>
</g>
<g>
</g>
</svg>
