<?xml version="1.0" encoding="iso-8859-1"?>
<!-- Generator: Adobe Illustrator 19.0.0, SVG Export Plug-In . SVG Version: 6.00 Build 0)  -->
<svg xmlns="http://www.w3.org/2000/svg" xmlns:xlink="http://www.w3.org/1999/xlink" version="1.1" id="Layer_1" x="0px" y="0px" viewBox="0 0 511.955 511.955" style="enable-background:new 0 0 511.955 511.955;" xml:space="preserve" width="30" height="30">
<linearGradient id="SVGID_1_" gradientUnits="userSpaceOnUse" x1="0" y1="255.9774" x2="511.9547" y2="255.9774">
	<stop offset="0" style="stop-color:#FFF"/>
	<stop offset="0.0208" style="stop-color:#FFF"/>
	<stop offset="0.2931" style="stop-color:#FFF"/>
	<stop offset="0.5538" style="stop-color:#FFF"/>
	<stop offset="0.7956" style="stop-color:#FFF"/>
	<stop offset="1" style="stop-color:#FFF"/>
</linearGradient>
<path style="fill:url(#SVGID_1_);" d="M276.985,184.978v140c0,11.046-8.954,20-20,20s-20-8.954-20-20v-140c0-11.046,8.954-20,20-20  S276.985,173.932,276.985,184.978z M176.985,234.978H55.713l43.486-43.93c7.771-7.851,7.707-20.514-0.144-28.284  c-7.85-7.77-20.513-7.707-28.284,0.144l-56.193,56.767c-19.444,19.499-19.426,51.181-0.017,70.591l59.213,59.787  c3.911,3.948,9.06,5.926,14.21,5.926c5.086,0,10.174-1.928,14.073-5.79c7.848-7.772,7.909-20.436,0.136-28.284l-46.476-46.926  h121.266c11.046,0,20-8.954,20-20C196.985,243.932,188.031,234.978,176.985,234.978z M497.288,219.57l-58.213-57.787  c-7.839-7.782-20.503-7.735-28.284,0.104c-7.782,7.839-7.735,20.502,0.104,28.284l45.136,44.806H336.985c-11.046,0-20,8.954-20,20  c0,11.046,8.954,20,20,20h119.266l-46.476,46.926c-7.773,7.849-7.712,20.512,0.136,28.284c3.899,3.862,8.987,5.79,14.073,5.79  c5.15,0,10.3-1.978,14.21-5.926l59.146-59.72C516.835,270.838,516.835,239.117,497.288,219.57z"/>















</svg>
